<svg xmlns="http://www.w3.org/2000/svg" version="1.1" xmlns:xlink="http://www.w3.org/1999/xlink" xmlns:svgjs="http://svgjs.dev/svgjs" width="1440" height="560" preserveAspectRatio="none" viewBox="0 0 1440 560"><g mask="url(&quot;#SvgjsMask1000&quot;)" fill="none"><rect width="1440" height="560" x="0" y="0" fill="#0e2a47"></rect><path d="M 0,62 C 57.6,82.6 172.8,164 288,165 C 403.2,166 460.8,64.8 576,67 C 691.2,69.2 748.8,183.8 864,176 C 979.2,168.2 1036.8,10.4 1152,28 C 1267.2,45.6 1382.4,216.8 1440,264L1440 560L0 560z" fill="#184a7e"></path><path d="M 0,429 C 96,423.2 288,400.4 480,400 C 672,399.6 768,429 960,427 C 1152,425 1344,397.4 1440,390L1440 560L0 560z" fill="#2264ab"></path></g><defs><mask id="SvgjsMask1000"><rect width="1440" height="560" fill="#ffffff"></rect></mask></defs></svg>