<svg xmlns="http://www.w3.org/2000/svg" version="1.1" xmlns:xlink="http://www.w3.org/1999/xlink" xmlns:svgjs="http://svgjs.dev/svgjs" width="1440" height="560" preserveAspectRatio="none" viewBox="0 0 1440 560"><g mask="url(&quot;#SvgjsMask1000&quot;)" fill="none"><rect width="1440" height="560" x="0" y="0" fill="#0e2a47"></rect><path d="M600.56 278.65 a12.49 12.49 0 1 0 24.98 0 a12.49 12.49 0 1 0 -24.98 0z" fill="#e73635"></path><path d="M777.11 377.81L778.67 377.81L778.67 402.32L777.11 402.32z" fill="#037b0b"></path><path d="M139.3 265.13 a31.73 31.73 0 1 0 63.46 0 a31.73 31.73 0 1 0 -63.46 0z" fill="#e73635"></path><path d="M289.54 144.76 a12.44 12.44 0 1 0 24.88 0 a12.44 12.44 0 1 0 -24.88 0z" stroke="#e73635"></path><path d="M285.52 535.13L324.66 535.13L324.66 577.5L285.52 577.5z" stroke="#037b0b"></path><path d="M576.48 482.6L602.06 482.6L602.06 508.18L576.48 508.18z" fill="#d3b714"></path><path d="M937.81 513.55L991.69 513.55L991.69 518.3L937.81 518.3z" fill="#e73635"></path><path d="M134.64 330.92L155.09 330.92L155.09 351.37L134.64 351.37z" stroke="#037b0b"></path><path d="M860.6 79.41a8.82 8.82 0 1 0 16.76-5.49z" stroke="#d3b714"></path><path d="M166.05 383.78 a24.87 24.87 0 1 0 49.74 0 a24.87 24.87 0 1 0 -49.74 0z" fill="#d3b714"></path><path d="M158.03 548.69L213.98 548.69L213.98 600.93L158.03 600.93z" stroke="#e73635"></path><path d="M15.6 468.65a0.34 0.34 0 1 0-0.68-0.01z" stroke="#037b0b"></path><path d="M15.91 75.9L69.44 75.9L69.44 129.43L15.91 129.43z" stroke="#e73635"></path><path d="M1106.18 302.13a5.23 5.23 0 1 0 10.46 0z" fill="#037b0b"></path><path d="M116.72 516.88a17.49 17.49 0 1 0 10.52-33.36z" stroke="#d3b714"></path><path d="M514.44 454.07L558.62 454.07L558.62 498.25L514.44 498.25z" fill="#e73635"></path><path d="M78.41 302.11L123.57 302.11L123.57 344.3L78.41 344.3z" fill="#d3b714"></path><path d="M488.14 250.14L488.31 250.14L488.31 250.31L488.14 250.31z" stroke="#d3b714"></path><path d="M953.13 497.2 a55.42 55.42 0 1 0 110.84 0 a55.42 55.42 0 1 0 -110.84 0z" fill="#037b0b"></path><path d="M330.17 58.08L367.73 58.08L367.73 95.64L330.17 95.64z" stroke="#e73635"></path><path d="M595.29 421.89a0.66 0.66 0 1 0 1.3-0.16z" stroke="#e73635"></path><path d="M491.02 236.76L547.01 236.76L547.01 274.48L491.02 274.48z" stroke="#037b0b"></path><path d="M176.96 361.97L203.89 361.97L203.89 404.27L176.96 404.27z" fill="#037b0b"></path><path d="M721.27 238.05L766.32 238.05L766.32 276.74L721.27 276.74z" fill="#037b0b"></path><path d="M1420.99 409.59L1465.06 409.59L1465.06 453.66L1420.99 453.66z" stroke="#d3b714"></path><path d="M1359.46 334.73 a40.06 40.06 0 1 0 80.12 0 a40.06 40.06 0 1 0 -80.12 0z" fill="#037b0b"></path><path d="M1148.98 312.84L1202.94 312.84L1202.94 343.72L1148.98 343.72z" stroke="#d3b714"></path><path d="M535.37 291.44L565.86 291.44L565.86 321.93L535.37 321.93z" fill="#e73635"></path><path d="M536.2 140.04L578.52 140.04L578.52 182.36L536.2 182.36z" fill="#d3b714"></path><path d="M483.57 515.83L527.29 515.83L527.29 559.55L483.57 559.55z" stroke="#037b0b"></path><path d="M609.31 354.64 a29.46 29.46 0 1 0 58.92 0 a29.46 29.46 0 1 0 -58.92 0z" fill="#e73635"></path><path d="M1208.1 302.07a1.43 1.43 0 1 0 1.6 2.37z" fill="#d3b714"></path><path d="M892.95 220.71a43.91 43.91 0 1 0 66.89-56.9z" fill="#037b0b"></path></g><defs><mask id="SvgjsMask1000"><rect width="1440" height="560" fill="#ffffff"></rect></mask></defs></svg>